<?xml version="1.0" encoding="UTF-8"?>
<svg id="_图层_1" data-name="图层 1" xmlns="http://www.w3.org/2000/svg" viewBox="0 0 100 100">
  <path d="M69,15.05h-34.97c-11.06,0-13.27,2.56-13.28,13.04.34-.01.34.05.34.05h-.29c-2.9,0-3.7,2.37-3.7,5.29s.81,5.29,3.7,5.29l-.02-.09v7.37l.02-.46c-2.9,0-3.7,2.37-3.7,5.29s.81,5.29,3.7,5.29l-.02-.54v8.11l.02-.74c-2.9,0-3.7,2.37-3.7,5.28s.19,5.94,3.09,5.94h.54c.08,9.19,2.17,10.89,13.3,10.89h34.97c9.73,0,12.94-2.29,12.94-11.48V28.09c0-11.11-2.91-13.03-12.94-13.03h0ZM63.51,54.11c1.9,0,2.89,1.02,2.98,2.95.09,1.93-.91,3.12-3.28,3.11-1.35,0-7.81-.17-7.81-.17v6.63c0,1.93-1.83,2.26-3.74,2.26s-3.63-.34-3.63-2.26v-6.63h-8.11c-1.9,0-2.95-1.02-2.95-2.95,0-1.28-.03-.43-.02-.53.15-1.79,1.16-2.42,2.96-2.42h8.11v-4.42h-8.11c-1.4,0-2.77-.34-2.77-3.52,0-1.93,1.17-3.11,3.09-3.11h6.18l-4.21-3.9-1.97-1.98c-1.28-1.29-1.31-3.3-.17-4.68.07-.08.1-.18.17-.26,1.35-1.36,3.55-1.36,4.9,0l.26.26,6.31,6.35,6.56-6.61c1.35-1.36,3.55-1.36,4.9,0,1.35,1.36,1.35,3.58,0,4.94l-5.94,5.88h6.18c1.91,0,3.09,1.18,3.09,3.11s-1.07,3.52-2.98,3.52h-8.11v4.42h8.11ZM63.51,54.11" style="fill: #000;"/>
</svg>